<?xml version="1.0" encoding="utf-8"?>
<!-- Generator: Adobe Illustrator 22.0.0, SVG Export Plug-In . SVG Version: 6.00 Build 0)  -->
<svg version="1.1" id="Layer_1" xmlns:mydata="http://www.w3.org/2000/svg"
	 xmlns="http://www.w3.org/2000/svg" xmlns:xlink="http://www.w3.org/1999/xlink" x="0px" y="0px" viewBox="0 0 437.7 64.3"
	 style="enable-background:new 0 0 437.7 64.3;" xml:space="preserve">
<g>
	<g>
		<g>
			<path d="M45.3,10.9c2,0,3.6,0.5,4.7,1.6c1,1,1.6,2.5,1.6,4.5v0.3c0,2.2-1.1,4.3-3.3,6.2L36.8,36l11.5,12.5c2.2,2,3.3,4,3.3,5.9
				c0,0.1,0,0.3,0,0.4v0.5c0,1.9-0.5,3.3-1.5,4.2c-1.1,1-2.7,1.5-4.6,1.5h-0.2c-2.1,0-3.8-0.5-4.8-1.6c-1.1-1.1-3.7-4.1-7.7-9
				s-6.7-8-7.7-9.3c-1.1-1.2-1.6-3-1.7-5.2c0-2,0.5-3.7,1.6-5.1c1.1-1.3,3.7-4.5,7.9-9.6s6.8-8.1,7.8-9.1
				C41.7,11.4,43.2,10.9,45.3,10.9 M13.9,10.9c4.2,0,6.3,2.1,6.3,6.3l0,37.7c0,4.1-2.1,6.2-6.3,6.3c-4.2,0-6.2-2.1-6.2-6.2V17.3
				C7.7,13.1,9.8,11,13.9,10.9L13.9,10.9z"/>
			<path d="M82.2,11c4.2,0,8.4,1.1,12.4,3.3c4,2.2,7.1,5.3,9.4,9.3s3.4,8.2,3.4,12.6c0,4.3-1.1,8.5-3.3,12.5s-5.3,7.1-9.3,9.3
				c-4,2.2-8.2,3.3-12.6,3.3c-4.3,0-8.5-1.1-12.5-3.3c-4-2.2-7.1-5.3-9.3-9.3c-2.2-4-3.3-8.2-3.3-12.5c0-4.4,1.1-8.6,3.4-12.6
				s5.4-7.1,9.4-9.3S78,11,82.2,11 M82.3,23.5c-2.1,0-4.2,0.5-6.2,1.6c-2,1.1-3.6,2.6-4.7,4.6c-1.1,2-1.7,4.1-1.7,6.3
				c0,2.2,0.6,4.3,1.7,6.3c1.1,2,2.7,3.5,4.6,4.6s4.1,1.6,6.3,1.6c2.2,0,4.3-0.5,6.3-1.6c2-1.1,3.6-2.6,4.6-4.6s1.6-4.1,1.6-6.3
				c0-2.2-0.6-4.3-1.7-6.3c-1.1-2-2.7-3.6-4.7-4.6C86.5,24.1,84.4,23.5,82.3,23.5z"/>
			<path d="M119.4,10.9c4.2,0.1,6.3,2.2,6.4,6.2l0,31.5h25c4.2,0,6.3,2.1,6.3,6.4c0,4.1-2.1,6.2-6.2,6.2h-31.4c-4.2,0-6.3-2-6.3-6.1
				V17.3C113.1,13.1,115.2,11,119.4,10.9L119.4,10.9z"/>
			<path d="M168.1,10.9c4.2,0.1,6.3,2.2,6.4,6.2l0,31.5h25c4.2,0,6.3,2.1,6.3,6.4c0,4.1-2.1,6.2-6.2,6.2h-31.4c-4.2,0-6.3-2-6.3-6.1
				V17.3C161.8,13.1,163.9,11,168.1,10.9L168.1,10.9z"/>
			<path d="M216.8,61.2c-1.1,0-2.1-0.3-3.1-0.8s-1.8-1.3-2.3-2.3c-0.6-1-0.8-2.1-0.8-3.2s3.1-7.9,9.4-20.5s9.7-19.3,10.2-20.3
				c0.5-1,1.3-1.8,2.3-2.3s2-0.8,3.1-0.8c1.1,0,2.1,0.3,3.1,0.8c1,0.6,1.8,1.3,2.3,2.3c0.5,1,4,7.8,10.3,20.3
				c6.3,12.6,9.4,19.4,9.4,20.5s-0.3,2.2-0.8,3.2s-1.3,1.8-2.4,2.3c-1,0.5-2,0.8-3.1,0.8H216.8 M244.2,48.6l-8.6-17.7l-8.6,17.7
				H244.2z"/>
			<path d="M272.6,11h22c4.2,0,7.8,1.6,11,4.7c3.1,3.1,4.7,6.7,4.7,10.8v0.2c-0.1,4.2-1.1,7.3-3.3,9.3c2.2,2.2,3.3,5.3,3.3,9.3v0.2
				c-0.1,4.1-1.7,7.8-4.8,10.9s-6.7,4.7-10.5,4.7h-22.5c-4.1,0-6.1-2.1-6.1-6.3V17.3C266.4,13.1,268.5,11,272.6,11 M279,23.6v25
				h15.6c2.1,0,3.2-1,3.2-3.1c0-2.1-1-3.2-3.1-3.2l-3.1,0c-4.2,0-6.3-2.2-6.3-6.6c0-4,2.1-5.9,6.3-5.9l3.1,0c2.1,0,3.1-1.2,3.1-3.5
				c0.1-1.9-1-2.8-3.1-2.8L279,23.6z"/>
			<path d="M389.5,10.9c2.1,0,3.7,0.5,4.7,1.5s4.8,5.4,11.2,13.1c6.5-7.8,10.3-12.3,11.3-13.3s2.6-1.5,4.7-1.5c2,0,3.6,0.5,4.7,1.6
				c1,1,1.6,2.5,1.6,4.5v0.3c0,2.2-1.1,4.3-3.3,6.2l-10.7,12.6l10.7,12.5c2.2,2.1,3.3,4.1,3.3,6c0,0.1,0,0.3,0,0.4v0.5
				c0,1.9-0.5,3.3-1.5,4.2c-1.2,1.1-2.7,1.6-4.8,1.5c-2.1,0-3.8-0.5-4.8-1.6c-1.1-1.1-4.7-5.4-11-13c-6.4,7.7-10.1,12.1-11.1,13.2
				s-2.7,1.6-4.8,1.6h-0.2c-2,0-3.5-0.5-4.6-1.5c-1-1-1.6-2.4-1.6-4.2v-0.5c0-0.2,0-0.3,0-0.4c0-1.9,1.1-3.9,3.3-5.9L397.7,36
				l-11.1-12.6c-2.2-1.9-3.3-4-3.3-6.2v-0.3c0-2,0.5-3.5,1.6-4.5C385.8,11.4,387.4,10.9,389.5,10.9L389.5,10.9z"/>
		</g>
		<path d="M346.8,57.2c-11.7,0-21.2-9.5-21.2-21.2c0-3.6,0.9-7,2.5-10l-3-3c-2.3,3.8-3.6,8.2-3.6,13c0,14,11.3,25.3,25.3,25.3
			c7.7,0,14.6-3.5,19.3-8.9l-2.9-2.9C359.2,54.2,353.3,57.2,346.8,57.2L346.8,57.2z M346.8,10.7c-7.7,0-14.6,3.5-19.3,8.9l2.9,2.9
			c3.9-4.7,9.8-7.7,16.3-7.7c11.7,0,21.2,9.5,21.2,21.2c0,3.6-0.9,7-2.5,10l3,3c2.3-3.8,3.6-8.2,3.6-13
			C372,22,360.7,10.7,346.8,10.7L346.8,10.7z M346.8,53.1c9.4,0,17.1-7.6,17.1-17.1c0-9.4-7.6-17.1-17.1-17.1
			c-9.4,0-17.1,7.6-17.1,17.1C329.7,45.4,337.3,53.1,346.8,53.1z M346.8,23c7.2,0,13,5.8,13,13c0,7.2-5.8,13-13,13s-13-5.8-13-13
			C333.8,28.8,339.6,23,346.8,23z"/>
	</g>
</g>
</svg>
